name rise34.3697peak60.0498fall86.3158.mot
datacolumns 19
datarows 30
range 10.40331700000000 10.45162300000000
endheader
time	ground_force1_vx	ground_force1_vy	ground_force1_vz	ground_force1_px	ground_force1_py	ground_force1_pz	ground_force2_vx	ground_force2_vy	ground_force2_vz	ground_force2_px	ground_force2_py	ground_force2_pz	ground_torque1_x	ground_torque1_y	ground_torque1_z	ground_torque2_x	ground_torque2_y	ground_torque2_z	
10.40331700000000	-3.08180400000000	700.17764599999998	40.89156800000000	0.29057800000000	0.00000000000000	0.13759100000000	0.00000000000000	0.00000000000000	0.00000000000000	0.00000000000000	0.00000000000000	0.00000000000000	0.00000000000000	23.37487900000000	0.00000000000000	0.00000000000000	0.00000000000000	0.00000000000000	
10.40495900000000	-3.54600400000000	700.88482199999999	40.95448400000000	0.28961900000000	0.00000000000000	0.13765400000000	0.00000000000000	0.00000000000000	0.00000000000000	0.00000000000000	0.00000000000000	0.00000000000000	0.00000000000000	23.50449500000000	0.00000000000000	0.00000000000000	0.00000000000000	0.00000000000000	
10.40662800000000	-4.01821400000000	701.62140699999998	41.01850900000000	0.28867900000000	0.00000000000000	0.13771700000000	0.00000000000000	0.00000000000000	0.00000000000000	0.00000000000000	0.00000000000000	0.00000000000000	0.00000000000000	23.63807800000000	0.00000000000000	0.00000000000000	0.00000000000000	0.00000000000000	
10.40830100000000	-4.49837300000000	702.38696100000004	41.08352800000000	0.28775800000000	0.00000000000000	0.13777900000000	0.00000000000000	0.00000000000000	0.00000000000000	0.00000000000000	0.00000000000000	0.00000000000000	0.00000000000000	23.77546100000000	0.00000000000000	0.00000000000000	0.00000000000000	0.00000000000000	
10.40995900000000	-4.98639000000000	703.18116499999996	41.14945100000000	0.28685600000000	0.00000000000000	0.13784100000000	0.00000000000000	0.00000000000000	0.00000000000000	0.00000000000000	0.00000000000000	0.00000000000000	0.00000000000000	23.91648100000000	0.00000000000000	0.00000000000000	0.00000000000000	0.00000000000000	
10.41163100000000	-5.48213700000000	704.00381800000002	41.21620900000000	0.28597100000000	0.00000000000000	0.13790200000000	0.00000000000000	0.00000000000000	0.00000000000000	0.00000000000000	0.00000000000000	0.00000000000000	0.00000000000000	24.06097500000000	0.00000000000000	0.00000000000000	0.00000000000000	0.00000000000000	
10.41330700000000	-5.98545700000000	704.85483699999997	41.28375500000000	0.28510400000000	0.00000000000000	0.13796200000000	0.00000000000000	0.00000000000000	0.00000000000000	0.00000000000000	0.00000000000000	0.00000000000000	0.00000000000000	24.20878200000000	0.00000000000000	0.00000000000000	0.00000000000000	0.00000000000000	
10.41497500000000	-6.49615700000000	705.73425699999996	41.35206400000000	0.28425300000000	0.00000000000000	0.13802200000000	0.00000000000000	0.00000000000000	0.00000000000000	0.00000000000000	0.00000000000000	0.00000000000000	0.00000000000000	24.35974400000000	0.00000000000000	0.00000000000000	0.00000000000000	0.00000000000000	
10.41662600000000	-7.01401400000000	706.64222199999995	41.42113000000000	0.28341800000000	0.00000000000000	0.13808100000000	0.00000000000000	0.00000000000000	0.00000000000000	0.00000000000000	0.00000000000000	0.00000000000000	0.00000000000000	24.51370600000000	0.00000000000000	0.00000000000000	0.00000000000000	0.00000000000000	
10.41830800000000	-7.53877100000000	707.57898499999999	41.49097000000000	0.28259900000000	0.00000000000000	0.13813900000000	0.00000000000000	0.00000000000000	0.00000000000000	0.00000000000000	0.00000000000000	0.00000000000000	0.00000000000000	24.67051100000000	0.00000000000000	0.00000000000000	0.00000000000000	0.00000000000000	
10.41996100000000	-8.07014400000000	708.54490299999998	41.56161800000000	0.28179500000000	0.00000000000000	0.13819600000000	0.00000000000000	0.00000000000000	0.00000000000000	0.00000000000000	0.00000000000000	0.00000000000000	0.00000000000000	24.83000700000000	0.00000000000000	0.00000000000000	0.00000000000000	0.00000000000000	
10.42162600000000	-8.60781500000000	709.54042900000002	41.63312700000000	0.28100500000000	0.00000000000000	0.13825300000000	0.00000000000000	0.00000000000000	0.00000000000000	0.00000000000000	0.00000000000000	0.00000000000000	0.00000000000000	24.99204000000000	0.00000000000000	0.00000000000000	0.00000000000000	0.00000000000000	
10.42330200000000	-9.15144000000000	710.56610699999999	41.70557000000000	0.28022800000000	0.00000000000000	0.13830900000000	0.00000000000000	0.00000000000000	0.00000000000000	0.00000000000000	0.00000000000000	0.00000000000000	0.00000000000000	25.15646000000000	0.00000000000000	0.00000000000000	0.00000000000000	0.00000000000000	
10.42496400000000	-9.70064500000000	711.62256300000001	41.77903600000000	0.27946400000000	0.00000000000000	0.13836500000000	0.00000000000000	0.00000000000000	0.00000000000000	0.00000000000000	0.00000000000000	0.00000000000000	0.00000000000000	25.32311700000000	0.00000000000000	0.00000000000000	0.00000000000000	0.00000000000000	
10.42663200000000	-10.25503000000000	712.71050200000002	41.85362800000000	0.27871100000000	0.00000000000000	0.13841900000000	0.00000000000000	0.00000000000000	0.00000000000000	0.00000000000000	0.00000000000000	0.00000000000000	0.00000000000000	25.49186200000000	0.00000000000000	0.00000000000000	0.00000000000000	0.00000000000000	
10.42830000000000	-10.81417100000000	713.83069300000000	41.92946600000000	0.27797000000000	0.00000000000000	0.13847300000000	0.00000000000000	0.00000000000000	0.00000000000000	0.00000000000000	0.00000000000000	0.00000000000000	0.00000000000000	25.66254600000000	0.00000000000000	0.00000000000000	0.00000000000000	0.00000000000000	
10.42996300000000	-11.37761800000000	714.98396400000001	42.00668400000000	0.27723900000000	0.00000000000000	0.13852600000000	0.00000000000000	0.00000000000000	0.00000000000000	0.00000000000000	0.00000000000000	0.00000000000000	0.00000000000000	25.83502400000000	0.00000000000000	0.00000000000000	0.00000000000000	0.00000000000000	
10.43162400000000	-11.94490000000000	716.17119300000002	42.08542800000000	0.27651700000000	0.00000000000000	0.13857800000000	0.00000000000000	0.00000000000000	0.00000000000000	0.00000000000000	0.00000000000000	0.00000000000000	0.00000000000000	26.00914700000000	0.00000000000000	0.00000000000000	0.00000000000000	0.00000000000000	
10.43330400000000	-12.51552500000000	717.39329199999997	42.16585700000000	0.27580500000000	0.00000000000000	0.13863000000000	0.00000000000000	0.00000000000000	0.00000000000000	0.00000000000000	0.00000000000000	0.00000000000000	0.00000000000000	26.18477100000000	0.00000000000000	0.00000000000000	0.00000000000000	0.00000000000000	
10.43496400000000	-13.08898000000000	718.65120600000000	42.24813900000000	0.27510000000000	0.00000000000000	0.13868000000000	0.00000000000000	0.00000000000000	0.00000000000000	0.00000000000000	0.00000000000000	0.00000000000000	0.00000000000000	26.36175100000000	0.00000000000000	0.00000000000000	0.00000000000000	0.00000000000000	
10.43663100000000	-13.66473700000000	719.94589299999996	42.33245400000000	0.27440300000000	0.00000000000000	0.13873000000000	0.00000000000000	0.00000000000000	0.00000000000000	0.00000000000000	0.00000000000000	0.00000000000000	0.00000000000000	26.53994200000000	0.00000000000000	0.00000000000000	0.00000000000000	0.00000000000000	
10.43830400000000	-14.24225000000000	721.27831900000001	42.41898700000000	0.27371300000000	0.00000000000000	0.13877900000000	0.00000000000000	0.00000000000000	0.00000000000000	0.00000000000000	0.00000000000000	0.00000000000000	0.00000000000000	26.71920100000000	0.00000000000000	0.00000000000000	0.00000000000000	0.00000000000000	
10.43996100000000	-14.82096100000000	722.64944400000002	42.50793300000000	0.27302800000000	0.00000000000000	0.13882700000000	0.00000000000000	0.00000000000000	0.00000000000000	0.00000000000000	0.00000000000000	0.00000000000000	0.00000000000000	26.89938400000000	0.00000000000000	0.00000000000000	0.00000000000000	0.00000000000000	
10.44162800000000	-15.40029700000000	724.06020999999998	42.59949300000000	0.27234900000000	0.00000000000000	0.13887400000000	0.00000000000000	0.00000000000000	0.00000000000000	0.00000000000000	0.00000000000000	0.00000000000000	0.00000000000000	27.08034800000000	0.00000000000000	0.00000000000000	0.00000000000000	0.00000000000000	
10.44331100000000	-15.97967800000000	725.51153199999999	42.69387200000000	0.27167400000000	0.00000000000000	0.13892000000000	0.00000000000000	0.00000000000000	0.00000000000000	0.00000000000000	0.00000000000000	0.00000000000000	0.00000000000000	27.26195100000000	0.00000000000000	0.00000000000000	0.00000000000000	0.00000000000000	
10.44496200000000	-16.55851300000000	727.00428399999998	42.79127900000000	0.27100400000000	0.00000000000000	0.13896600000000	0.00000000000000	0.00000000000000	0.00000000000000	0.00000000000000	0.00000000000000	0.00000000000000	0.00000000000000	27.44405200000000	0.00000000000000	0.00000000000000	0.00000000000000	0.00000000000000	
10.44662600000000	-17.13620600000000	728.53929000000005	42.89192500000000	0.27033700000000	0.00000000000000	0.13901000000000	0.00000000000000	0.00000000000000	0.00000000000000	0.00000000000000	0.00000000000000	0.00000000000000	0.00000000000000	27.62650800000000	0.00000000000000	0.00000000000000	0.00000000000000	0.00000000000000	
10.44830300000000	-17.71215600000000	730.11730799999998	42.99602400000000	0.26967300000000	0.00000000000000	0.13905300000000	0.00000000000000	0.00000000000000	0.00000000000000	0.00000000000000	0.00000000000000	0.00000000000000	0.00000000000000	27.80917900000000	0.00000000000000	0.00000000000000	0.00000000000000	0.00000000000000	
10.44995800000000	-18.28575800000000	731.73902499999997	43.10379100000000	0.26901100000000	0.00000000000000	0.13909600000000	0.00000000000000	0.00000000000000	0.00000000000000	0.00000000000000	0.00000000000000	0.00000000000000	0.00000000000000	27.99192500000000	0.00000000000000	0.00000000000000	0.00000000000000	0.00000000000000	
10.45162300000000	-18.85641000000000	733.40503999999999	43.21543700000000	0.26835200000000	0.00000000000000	0.13913800000000	0.00000000000000	0.00000000000000	0.00000000000000	0.00000000000000	0.00000000000000	0.00000000000000	0.00000000000000	28.17460500000000	0.00000000000000	0.00000000000000	0.00000000000000	0.00000000000000	
